<svg xmlns="http://www.w3.org/2000/svg" viewBox="0 0 32 32"><title>logotype</title><path d="M8.45,22.9A3.37,3.37,0,0,1,10.06,20l.27-.17a4.31,4.31,0,0,0,2.08-2.36,7.31,7.31,0,0,1,.49-.91,3.05,3.05,0,0,1,2.37-1.52,4.37,4.37,0,0,1,2.71.4A3.55,3.55,0,0,1,19.34,17c.2.39.42.77.6,1.17a3.23,3.23,0,0,0,1.26,1.38,10.7,10.7,0,0,1,1.06.69,3.51,3.51,0,0,1-.07,5.39,2.89,2.89,0,0,1-3.21,0,3.18,3.18,0,0,1-.43-.28,4.44,4.44,0,0,0-5.09,0,3.46,3.46,0,0,1-1.76.74A2.68,2.68,0,0,1,8.75,24.2,11.65,11.65,0,0,1,8.45,22.9Z" style="fill:#fff"/><path d="M26.8,13.71a4.89,4.89,0,0,1-1.47,3.54,2.61,2.61,0,0,1-1,.57,1.67,1.67,0,0,1-2-1A4.2,4.2,0,0,1,22,14.34a4.82,4.82,0,0,1,1.21-2.74A3.07,3.07,0,0,1,24,11a1.62,1.62,0,0,1,2.14.5A3.71,3.71,0,0,1,26.8,13.71Z" style="fill:#fff"/><path d="M15,10a4,4,0,0,1-.66,2.25,1.68,1.68,0,0,1-2.55.39,4,4,0,0,1-1.42-2.4,4.5,4.5,0,0,1,.38-3.39,1.72,1.72,0,0,1,2.79-.46,4.19,4.19,0,0,1,.76.92A5.2,5.2,0,0,1,15,10Z" style="fill:#fff"/><path d="M21.76,9a4.93,4.93,0,0,1-1,3,2.82,2.82,0,0,1-.66.63,1.66,1.66,0,0,1-2.42-.39A3.44,3.44,0,0,1,17,10.43a5,5,0,0,1,1.12-3.77,2.68,2.68,0,0,1,.57-.49A1.65,1.65,0,0,1,21,6.55,3.88,3.88,0,0,1,21.76,9Z" style="fill:#fff"/><path d="M5.2,13.78a4.05,4.05,0,0,1,.49-2.1,1.7,1.7,0,0,1,2.61-.54,4.16,4.16,0,0,1,1.52,2.28,4.72,4.72,0,0,1-.09,3.25,1.75,1.75,0,0,1-2.8.81A4.45,4.45,0,0,1,5.3,14.6C5.24,14.29,5.22,14,5.2,13.78Z" style="fill:#fff"/><path d="M16,0A16,16,0,1,0,32,16,16,16,0,0,0,16,0Zm0,30.8A14.8,14.8,0,1,1,30.8,16,14.8,14.8,0,0,1,16,30.8Z" style="fill:#fff"/></svg>