<svg id="profile-cover" xmlns="http://www.w3.org/2000/svg" viewBox="0 0 1280 720.01">
  <rect id="background" width="1280" height="720" style="fill: #c0c3c9"/>
  <path id="pattern" d="M1280,648.34V641l-46.76-12.53L1280,581.75v-10c-28.13,28.12-54.61,54.6-54.59,54.65L1167.84,611l60.68-105.07H1280v-7.06h-51.49l-58.69-101.62L1280,426.75V419.5L1233.27,407,1280,360.2v-10l-54.5,54.5a.15.15,0,0,1-.07.12l-57.59-15.43,60.67-105H1280v-7.06h-51.49l-58.69-101.65L1280,205.18v-7.3l-46.73-12.52L1280,138.63v-10c-28.12,28.11-54.58,54.57-54.57,54.63l-57.59-15.43,60.67-105H1280V55.74h-51.49L1196.31,0h-8.15l34.22,59.27-58.7,101.65L1120.57,0H1106s-72.49,72.41-72.45,72.5L976,57.07,1009,0h-8.15l-29,50.13L958.37,0h-7.29L966,55.74H844.75L812.55,0H804.4l34.23,59.27L815.69,99h0l-35.77,61.92L736.82,0H722.21c0,.05-72.45,72.4-72.45,72.49L592.2,57.07,625.15,0H617L588,50.13,574.6,0h-7.3l14.93,55.74H461L428.79,0h-8.17l34.22,59.27L396.15,160.92,353.05,0h-14.6S266,72.41,266,72.5L208.42,57.07,241.38,0h-8.16L204.27,50.13,190.84,0h-7.3l14.94,55.74H77.21L45,0H36.86L71.09,59.27,12.39,160.91,0,114.66v27.22L6.6,166.5H0v7.06H2.68L0,176.25v10L10.44,175.8l60.65,105L12.39,382.5,0,336.23V363.5l6.6,24.62H0v7.06H2.68L0,397.82v10l10.44-10.44,60.65,105L12.4,604.05,0,557.78V585l6.6,24.64H0v7.06H2.65L0,619.37v10L10.43,619,68.8,720H77L18.52,618.81S183,662.93,183.06,662.86L198.36,720h11.07l59.65-103.28H386.42L283.15,720h10l53.17-53.18L360.57,720h7.3c-.06-.13-15.71-58.82-15.81-58.92l.75-.75h0l41.4-41.4L452.56,720h8.17L402.28,618.81s164.49,44.12,164.54,44.05L582.11,720h11.1l59.65-103.28H770.18L666.91,720h10l53.18-53.18L744.34,720h7.31c-.06-.14-15.72-58.82-15.81-58.93L778,618.94l37.74,65.32h0L836.38,720h8.16l-58.48-101.2,29.63,7.94h0s134.83,36.17,134.9,36.11L965.9,720H977l59.65-103.28H1154L1050.69,720h10l53.18-53.18L1128.11,720h7.31c-.07-.13-15.72-58.82-15.82-58.92l42.16-42.15L1220.1,720h8.15l-58.43-101.19Zm-57.62-367.5-58.7,101.66c0-.05-44-164.53-44.1-164.56l42.16-42.14ZM1033.55,515.61,976,500.18l60.67-105H1154S1033.51,515.5,1033.55,515.61Zm80.29-70.35,26.52,99-99-26.51ZM950.59,219.71,966,277.31H844.74L786.06,175.67l29.63,7.93S950.52,219.77,950.59,219.71ZM849.5,185.37,922,112.89l26.53,99Zm112.58,99L841.73,404.72a.15.15,0,0,1-.07.12l-57.58-15.43,60.66-105ZM922,334.5l26.52,99-99-26.51ZM815.69,405.18h0s134.83,36.17,134.9,36.1L966,498.86H844.75L786.06,397.24Zm112.07-76.31a.15.15,0,0,0-.06-.14l42.14-42.14,60.66,105L971.81,493.25Zm105.86-34.95a.16.16,0,0,1-.09.14L976,278.64l60.68-105.07H1154Zm80.23-70.24,26.51,99-99-26.52Zm-77.23,164.4L977.92,286.5l164.41,44h.13l15.42,57.56Zm77.23-386,26.51,99-99-26.52Zm28.48,106.82h.13l15.42,57.6H1036.62L977.92,64.89ZM969.84,65l60.67,105-58.7,101.64c0-.09-44-164.44-44.11-164.53ZM844.75,62.8H962.08S841.61,183.19,841.66,183.26l-57.58-15.42ZM815.69,241.13h0l22.94,39.73-22.94,39.73h0L779.92,382.5c-.06-.13-44-164.42-44.09-164.52L778,175.81ZM649.77,515.61,592.2,500.18l60.66-105H770.22S649.74,515.5,649.77,515.61Zm80.31-70.36,26.52,99-99-26.51ZM566.68,219.7h.13l15.42,57.6H461L402.28,175.66ZM465.74,185.36,538.2,112.9l26.51,99Zm112.56,99S457.84,404.76,457.89,404.84l-57.58-15.43,60.66-105ZM538.2,334.5l26.51,99-99-26.51Zm28.48,106.81h.12l15.43,57.58H461L402.29,397.24ZM544,328.87a.15.15,0,0,0-.06-.14l42.14-42.15,60.65,105L588,493.25Zm105.84-34.95c-.05,0-.06.1-.09.14L592.2,278.64l60.67-105.07H770.2Zm80.25-70.24,26.51,99-99-26.52Zm-77.23,164.4L594.18,286.5l164.38,44h.14l15.42,57.56Zm77.23-386,26.51,99-99-26.52ZM758.56,108.9h.14l15.42,57.6H652.86L594.18,64.9ZM586.07,65l60.67,105L588,271.7c0-.07-44-164.48-44.1-164.55ZM461,62.8H578.31S457.84,183.2,457.89,183.26l-57.58-15.42Zm-6.15,218-58.7,101.7L352.79,220.61h0c-.05-.12-.67-2.61-.75-2.71l.75-.74h0L394.2,175.8ZM266,515.61l-57.59-15.43,60.66-105H386.44S266,515.5,266,515.61Zm80.29-70.35,26.52,99-20-5.37h0l-79-21.15ZM160.22,328.87c0-.05-.05-.09-.06-.14l42.14-42.14,60.66,105L204.27,493.25ZM181,433.5,82,406.94l72.44-72.44Zm85-139.39-57.57-15.42L269.1,173.57H386.44C386.42,173.64,266,294,266,294.06Zm80.32-70.38,26.52,99-20-5.37h0l-79-21.16Zm-77.23,164.4L210.39,286.5l164.41,44h.12l15.43,57.56Zm77.23-386,26.52,99-20-5.37h0l-79-21.15ZM374.8,108.94h.12l15.43,57.56H269.08L210.39,64.89ZM202.3,65,263,170l-58.7,101.64-44.05-164.4s-.05-.08-.06-.13ZM181,211.88,82,185.37l72.48-72.48ZM77.21,62.8H194.54S74.07,183.19,74.12,183.26L16.54,167.84ZM18.52,175.66S183,219.78,183.06,219.71l15.42,57.6H77.2ZM77.2,284.37H194.54S74.07,404.76,74.12,404.84L16.54,389.41ZM18.52,397.24s164.49,44.12,164.54,44l15.42,57.58H77.21ZM16.52,611l60.7-105.07H194.57c0,.06-120.5,120.37-120.47,120.49ZM81.94,628.5,154.44,556,181,655Zm122.33,86.31s-44-164.52-44.1-164.53l42.14-42.14,60.66,105Zm64.81-105.16L210.39,508,374.8,552h.12l15.43,57.6Zm83.71-167.48h0c-.05-.12-.66-2.6-.75-2.7l.75-.75h0L394.2,397.3l60.65,105L396.15,604ZM400.31,611,461,505.92H578.33c0,.06-120.48,120.38-120.46,120.49Zm65.41,17.52L538.2,556l26.51,99ZM588,714.82s-44-164.51-44.09-164.53l42.15-42.14,60.64,105Zm64.83-105.16L594.18,508l164.38,44h.14l15.43,57.6Zm83-170.15L778,397.38l37.73,65.31h0l22.94,39.73-22.94,39.74h0L780,604.07c-.1-.18-44-164.46-44.14-164.57ZM784.08,611l60.68-105.07H962.11c0,.06-120.5,120.37-120.47,120.49Zm65.4,17.51L922,556l26.53,99Zm122.33,86.31s-44-164.52-44.1-164.53l42.14-42.14,60.66,105Zm64.81-105.16L977.92,508l164.41,44h.12l15.44,57.6Zm83-170-.06-.12,42.16-42.15,60.65,105L1163.66,604Z" style="fill: #f2f3f4"/>
</svg>
